<?xml version="1.0" standalone="no"?>
<!DOCTYPE svg PUBLIC "-//W3C//DTD SVG 20010904//EN"
 "http://www.w3.org/TR/2001/REC-SVG-20010904/DTD/svg10.dtd">
<svg version="1.0" xmlns="http://www.w3.org/2000/svg"
 width="700.000000pt" height="700.000000pt" viewBox="0 0 700.000000 700.000000"
 preserveAspectRatio="xMidYMid meet">
<metadata>
Created by potrace 1.16, written by Peter Selinger 2001-2019
</metadata>
<g transform="translate(0.000000,700.000000) scale(0.100000,-0.100000)"
fill="#000000" stroke="none">
<path d="M0 3500 l0 -3500 3500 0 3500 0 0 3500 0 3500 -3500 0 -3500 0 0
-3500z m5515 299 c243 -29 407 -109 567 -277 72 -77 168 -203 168 -222 0 -3
-111 -80 -246 -170 l-247 -164 -26 31 c-14 16 -44 55 -67 85 -83 110 -218 167
-368 154 -88 -8 -156 -38 -204 -90 -50 -54 -67 -103 -66 -191 1 -86 29 -151
92 -211 46 -45 192 -124 367 -199 521 -225 745 -388 869 -632 68 -136 106
-362 87 -531 -15 -133 -34 -202 -85 -307 -119 -242 -348 -403 -676 -477 -93
-20 -130 -23 -320 -23 -188 0 -228 3 -319 24 -283 62 -532 198 -681 372 -57
67 -180 242 -180 258 0 8 4 11 282 173 131 76 241 138 245 138 5 0 24 -24 43
-52 51 -77 145 -174 217 -225 256 -182 686 -136 795 85 18 38 23 63 22 127 -1
176 -74 244 -446 413 -86 40 -160 72 -163 72 -15 0 -296 146 -355 184 -158
103 -270 221 -344 365 -75 145 -88 202 -93 397 -5 151 -3 180 16 255 88 350
360 579 761 642 54 9 270 6 355 -4z m-2027 -26 l512 -6 0 -284 0 -283 -455 0
-455 0 0 -1295 0 -1295 -325 0 -325 0 0 1295 0 1295 -455 0 -455 0 0 248 c0
136 3 264 6 284 l7 37 126 4 c270 6 1332 7 1819 0z"/>
</g>
</svg>
